<?xml version="1.0" encoding="utf-8"?>
<!-- Generator: Adobe Illustrator 24.0.0, SVG Export Plug-In . SVG Version: 6.00 Build 0)  -->
<svg version="1.1" id="Layer_1" xmlns="http://www.w3.org/2000/svg" xmlns:xlink="http://www.w3.org/1999/xlink" x="0px" y="0px"
	 viewBox="0 0 83 83" enable-background="new 0 0 83 83" xml:space="preserve">
<g opacity="0.3">
	<path fill-rule="evenodd" clip-rule="evenodd" fill="#FFFFFF" d="M82.87,44.9H61.39c-1.62,9.53-9.91,16.78-19.9,16.78
		s-18.28-7.25-19.9-16.78H0.13C1.86,66.23,19.72,83,41.49,83S81.12,66.23,82.87,44.9z M82.82,37.64H61.31
		c-1.8-9.3-9.99-16.33-19.82-16.33s-18.02,7.03-19.82,16.33H0.17C2.11,16.53,19.87,0,41.49,0S80.88,16.53,82.82,37.64z M28.68,41.5
		c0-7.08,5.74-12.82,12.82-12.82s12.82,5.74,12.82,12.82S48.58,54.32,41.5,54.32S28.68,48.58,28.68,41.5z"/>
</g>
</svg>
