<?xml version="1.0" encoding="utf-8"?>
<!-- Generator: Adobe Illustrator 24.0.0, SVG Export Plug-In . SVG Version: 6.00 Build 0)  -->
<svg version="1.1" id="Layer_1" xmlns="http://www.w3.org/2000/svg" xmlns:xlink="http://www.w3.org/1999/xlink" x="0px" y="0px"
	 viewBox="0 0 79 68" enable-background="new 0 0 79 68" xml:space="preserve">
<g opacity="0.3">
	<path fill-rule="evenodd" clip-rule="evenodd" fill="#FFFFFF" d="M82.73,44.9H61.26c-1.62,9.53-9.91,16.78-19.9,16.78
		s-18.28-7.25-19.9-16.78H0C1.73,66.23,19.59,83,41.36,83S80.99,66.23,82.73,44.9z M82.69,37.64H61.18
		c-1.8-9.3-9.99-16.33-19.82-16.33s-18.02,7.03-19.82,16.33H0.04C1.98,16.53,19.74,0,41.36,0S80.74,16.53,82.69,37.64z M28.55,41.5
		c0-7.08,5.74-12.82,12.82-12.82s12.82,5.74,12.82,12.82s-5.74,12.82-12.82,12.82S28.55,48.58,28.55,41.5z"/>
</g>
</svg>
